<svg width="260" height="34" viewBox="0 0 130 17" fill="none" xmlns="http://www.w3.org/2000/svg">
<path d="M4.53835 16L0.37642 1.45455H3.7358L6.14347 11.5611H6.2642L8.92045 1.45455H11.7969L14.446 11.5824H14.5739L16.9815 1.45455H20.3409L16.179 16H13.1818L10.4119 6.49006H10.2983L7.53551 16H4.53835ZM21.93 16V5.09091H24.9556V16H21.93ZM23.4499 3.68466C23.0001 3.68466 22.6142 3.53551 22.2923 3.23722C21.975 2.93419 21.8164 2.57197 21.8164 2.15057C21.8164 1.7339 21.975 1.37642 22.2923 1.07812C22.6142 0.775094 23.0001 0.623579 23.4499 0.623579C23.8997 0.623579 24.2833 0.775094 24.6005 1.07812C24.9225 1.37642 25.0835 1.7339 25.0835 2.15057C25.0835 2.57197 24.9225 2.93419 24.6005 3.23722C24.2833 3.53551 23.8997 3.68466 23.4499 3.68466ZM30.4048 9.69318V16H27.3793V5.09091H30.2628V7.01562H30.3906C30.6321 6.38116 31.0369 5.87926 31.6051 5.50994C32.1733 5.13589 32.8622 4.94886 33.6719 4.94886C34.4295 4.94886 35.09 5.11458 35.6534 5.44602C36.2169 5.77746 36.6548 6.25095 36.9673 6.86648C37.2798 7.47727 37.4361 8.20644 37.4361 9.05398V16H34.4105V9.59375C34.4152 8.92614 34.2448 8.4053 33.8991 8.03125C33.5535 7.65246 33.0777 7.46307 32.4716 7.46307C32.0644 7.46307 31.7045 7.55066 31.392 7.72585C31.0843 7.90104 30.8428 8.15672 30.6676 8.4929C30.4972 8.82434 30.4096 9.22443 30.4048 9.69318ZM43.8406 16.1776C43.012 16.1776 42.2615 15.9645 41.5891 15.5384C40.9215 15.1075 40.3912 14.4754 39.9982 13.642C39.61 12.804 39.4158 11.7765 39.4158 10.5597C39.4158 9.30966 39.6171 8.27036 40.0195 7.44176C40.422 6.60843 40.957 5.9858 41.6246 5.57386C42.297 5.1572 43.0333 4.94886 43.8335 4.94886C44.4442 4.94886 44.9532 5.05303 45.3604 5.26136C45.7724 5.46496 46.1038 5.72064 46.3548 6.02841C46.6104 6.33144 46.8046 6.62973 46.9371 6.9233H47.0295V1.45455H50.0479V16H47.065V14.2528H46.9371C46.7951 14.5559 46.5939 14.8565 46.3335 15.1548C46.0778 15.4484 45.744 15.6922 45.332 15.8864C44.9248 16.0805 44.4277 16.1776 43.8406 16.1776ZM44.7994 13.7699C45.2871 13.7699 45.699 13.6373 46.0352 13.3722C46.3761 13.1023 46.6365 12.7259 46.8164 12.2429C47.0011 11.7599 47.0934 11.1941 47.0934 10.5455C47.0934 9.89678 47.0034 9.33333 46.8235 8.85511C46.6436 8.37689 46.3832 8.00758 46.0423 7.74716C45.7013 7.48674 45.2871 7.35653 44.7994 7.35653C44.3022 7.35653 43.8832 7.49148 43.5423 7.76136C43.2013 8.03125 42.9433 8.4053 42.7681 8.88352C42.5929 9.36174 42.5053 9.91572 42.5053 10.5455C42.5053 11.1799 42.5929 11.741 42.7681 12.2287C42.948 12.7116 43.2061 13.0904 43.5423 13.3651C43.8832 13.6349 44.3022 13.7699 44.7994 13.7699ZM52.0384 3.99006V1.45455H63.9844V3.99006H59.5312V16H56.4915V3.99006H52.0384ZM69.2844 16.2131C68.1623 16.2131 67.1964 15.9858 66.3867 15.5312C65.5818 15.072 64.9615 14.4233 64.5259 13.5852C64.0903 12.7424 63.8725 11.7457 63.8725 10.5952C63.8725 9.47301 64.0903 8.48816 64.5259 7.64062C64.9615 6.79309 65.5747 6.13258 66.3654 5.65909C67.1609 5.18561 68.0936 4.94886 69.1637 4.94886C69.8834 4.94886 70.5534 5.06487 71.1737 5.29688C71.7987 5.52415 72.3432 5.86742 72.8072 6.3267C73.2759 6.78598 73.6405 7.36364 73.9009 8.05966C74.1613 8.75095 74.2915 9.56061 74.2915 10.4886V11.3196H65.0799V9.4446H71.4435C71.4435 9.009 71.3488 8.62311 71.1594 8.28693C70.9701 7.95076 70.7073 7.68797 70.3711 7.49858C70.0397 7.30445 69.6538 7.20739 69.2134 7.20739C68.7541 7.20739 68.3469 7.31392 67.9918 7.52699C67.6415 7.73532 67.3668 8.01705 67.168 8.37216C66.9691 8.72254 66.8673 9.11316 66.8626 9.54403V11.3267C66.8626 11.8665 66.962 12.3329 67.1609 12.7259C67.3645 13.1188 67.6509 13.4219 68.0202 13.6349C68.3896 13.848 68.8275 13.9545 69.3342 13.9545C69.6703 13.9545 69.9781 13.9072 70.2575 13.8125C70.5368 13.7178 70.7759 13.5758 70.9748 13.3864C71.1737 13.197 71.3252 12.965 71.4293 12.6903L74.2276 12.875C74.0856 13.5473 73.7944 14.1345 73.354 14.6364C72.9184 15.1335 72.355 15.5218 71.6637 15.8011C70.9772 16.0758 70.1841 16.2131 69.2844 16.2131ZM81.195 16.2131C80.0775 16.2131 79.1164 15.9763 78.3114 15.5028C77.5112 15.0246 76.8957 14.3617 76.4648 13.5142C76.0387 12.6667 75.8256 11.6913 75.8256 10.5881C75.8256 9.47064 76.0411 8.49053 76.4719 7.64773C76.9076 6.80019 77.5254 6.13968 78.3256 5.66619C79.1258 5.18797 80.0775 4.94886 81.1808 4.94886C82.1325 4.94886 82.9658 5.12169 83.6808 5.46733C84.3957 5.81297 84.9615 6.2983 85.3782 6.9233C85.7949 7.5483 86.0245 8.2822 86.0671 9.125H83.212C83.1315 8.58049 82.9184 8.14252 82.5728 7.81108C82.2319 7.47491 81.7844 7.30682 81.2305 7.30682C80.7617 7.30682 80.3522 7.43466 80.0018 7.69034C79.6561 7.94129 79.3862 8.30824 79.1921 8.79119C78.998 9.27415 78.9009 9.8589 78.9009 10.5455C78.9009 11.2415 78.9956 11.8333 79.185 12.321C79.3791 12.8087 79.6514 13.1804 80.0018 13.4361C80.3522 13.6918 80.7617 13.8196 81.2305 13.8196C81.5761 13.8196 81.8862 13.7486 82.1609 13.6065C82.4402 13.4645 82.6699 13.2585 82.8498 12.9886C83.0344 12.714 83.1552 12.3849 83.212 12.0014H86.0671C86.0198 12.8348 85.7925 13.5687 85.3853 14.2031C84.9828 14.8329 84.4265 15.3253 83.7163 15.6804C83.006 16.0355 82.1656 16.2131 81.195 16.2131ZM91.0298 9.69318V16H88.0043V1.45455H90.9446V7.01562H91.0724C91.3187 6.37169 91.7164 5.86742 92.2656 5.50284C92.8149 5.13352 93.5038 4.94886 94.3324 4.94886C95.09 4.94886 95.7505 5.11458 96.3139 5.44602C96.8821 5.77273 97.3224 6.24384 97.6349 6.85938C97.9522 7.47017 98.1084 8.2017 98.1037 9.05398V16H95.0781V9.59375C95.0829 8.9214 94.9124 8.3982 94.5668 8.02415C94.2259 7.65009 93.7476 7.46307 93.1321 7.46307C92.7202 7.46307 92.3556 7.55066 92.0384 7.72585C91.7259 7.90104 91.4796 8.15672 91.2997 8.4929C91.1245 8.82434 91.0346 9.22443 91.0298 9.69318ZM101.209 16V1.45455H105.904C106.936 1.45455 107.798 1.65341 108.489 2.05114C109.185 2.44413 109.708 2.97917 110.059 3.65625C110.414 4.33333 110.591 5.09564 110.591 5.94318C110.591 6.79072 110.416 7.5554 110.066 8.23722C109.715 8.9143 109.194 9.4517 108.503 9.84943C107.812 10.2424 106.953 10.4389 105.925 10.4389H102.232V9.24574H105.89C106.652 9.24574 107.284 9.10369 107.786 8.8196C108.288 8.53078 108.662 8.13778 108.908 7.64062C109.159 7.14347 109.284 6.57765 109.284 5.94318C109.284 5.30871 109.159 4.7429 108.908 4.24574C108.662 3.74858 108.285 3.35795 107.779 3.07386C107.277 2.78977 106.64 2.64773 105.868 2.64773H102.537V16H101.209ZM113.446 16V5.09091H114.675V6.76705H114.767C114.985 6.2178 115.364 5.77509 115.904 5.43892C116.448 5.09801 117.064 4.92756 117.75 4.92756C117.855 4.92756 117.971 4.92992 118.098 4.93466C118.226 4.93939 118.333 4.94413 118.418 4.94886V6.23438C118.361 6.22491 118.262 6.2107 118.12 6.19176C117.978 6.17282 117.824 6.16335 117.658 6.16335C117.09 6.16335 116.583 6.28409 116.138 6.52557C115.698 6.76231 115.35 7.09138 115.094 7.51278C114.838 7.93419 114.711 8.41477 114.711 8.95455V16H113.446ZM124.483 16.2273C123.541 16.2273 122.708 15.9882 121.983 15.5099C121.264 15.0317 120.7 14.3712 120.293 13.5284C119.886 12.6809 119.682 11.7031 119.682 10.5952C119.682 9.47775 119.886 8.49526 120.293 7.64773C120.7 6.79545 121.264 6.13258 121.983 5.65909C122.708 5.18087 123.541 4.94176 124.483 4.94176C125.426 4.94176 126.257 5.18087 126.976 5.65909C127.696 6.13731 128.259 6.80019 128.667 7.64773C129.078 8.49526 129.284 9.47775 129.284 10.5952C129.284 11.7031 129.081 12.6809 128.674 13.5284C128.266 14.3712 127.701 15.0317 126.976 15.5099C126.257 15.9882 125.426 16.2273 124.483 16.2273ZM124.483 15.0696C125.241 15.0696 125.882 14.866 126.408 14.4588C126.934 14.0516 127.331 13.5095 127.601 12.8324C127.876 12.1553 128.013 11.4096 128.013 10.5952C128.013 9.78078 127.876 9.03267 127.601 8.35085C127.331 7.66903 126.934 7.12216 126.408 6.71023C125.882 6.2983 125.241 6.09233 124.483 6.09233C123.73 6.09233 123.089 6.2983 122.559 6.71023C122.033 7.12216 121.633 7.66903 121.358 8.35085C121.088 9.03267 120.953 9.78078 120.953 10.5952C120.953 11.4096 121.088 12.1553 121.358 12.8324C121.633 13.5095 122.033 14.0516 122.559 14.4588C123.084 14.866 123.726 15.0696 124.483 15.0696Z" fill="white"/>
</svg>
